<?xml version="1.0" encoding="UTF-8"?>
<svg id="Calque_1" data-name="Calque 1" xmlns="http://www.w3.org/2000/svg" version="1.1" viewBox="0 0 100 100">
  <defs>
    <style>
      .cls-1 {
        fill: #fff;
        stroke-width: 0px;
      }
    </style>
  </defs>
  <path class="cls-1" d="M30.3,17.9c-7.2,0-13,5.8-13,13v39c0,7.2,5.8,13,13,13h39c7.2,0,13-5.8,13-13V30.9c0-7.2-5.8-13-13-13H30.3ZM30.3,19.9h39c6.1,0,11,4.9,11,11v39c0,6.1-4.9,11-11,11H30.3c-6.1,0-11-4.9-11-11V30.9c0-6.1,4.9-11,11-11ZM33.1,22.9c-6,0-10.8,4.9-10.8,10.8v33.3c0,6,4.9,10.8,10.8,10.8h33.3c6,0,10.8-4.9,10.8-10.8v-18.7c0-.3-.2-.5-.5-.5s-.5.2-.5.5v18.7c0,5.4-4.4,9.8-9.8,9.8h-33.3c-5.4,0-9.8-4.4-9.8-9.8v-33.3c0-5.4,4.4-9.8,9.8-9.8h33.7c.3,0,.5-.2.5-.5s-.2-.5-.5-.5h-33.7ZM76.8,36.9c-.3,0-.5.2-.5.5v2c0,.3.2.5.5.5s.5-.2.5-.5v-2c0-.3-.2-.5-.5-.5ZM40,37.2c-.2,0-.4.1-.5.3l-9.5,23.6c0,.2,0,.3,0,.5,0,.1.2.2.4.2h3.4c.2,0,.4-.1.5-.3l2-5.4h10.5l2.1,5.4c0,.2.3.3.5.3h3.4c.2,0,.3,0,.4-.2,0-.1.1-.3,0-.5l-9.5-23.6c0-.2-.3-.3-.5-.3h-3.2ZM40.4,38.2h2.6l9.1,22.6h-2.3l-2.1-5.4c0-.2-.3-.3-.5-.3h-11.2c-.2,0-.4.1-.5.3l-2,5.4h-2.3l9.1-22.6ZM41.7,40.2c-.2,0-.4,0-.5.3l-4.6,12.3c0,.2,0,.3,0,.5,0,.1.2.2.4.2h9.2c.2,0,.3,0,.4-.2,0-.1.1-.3,0-.5l-4.6-12.3c0-.2-.3-.3-.5-.3ZM76.8,40.9c-.3,0-.5.2-.5.5v4c0,.3.2.5.5.5s.5-.2.5-.5v-4c0-.3-.2-.5-.5-.5ZM41.7,42.1l3.9,10.4h-7.8l3.9-10.4ZM62.8,43.4c-1.3,0-2.5.2-3.5.7-1,.5-1.9,1.2-2.7,2-.7.9-1.3,1.9-1.7,3-.4,1.1-.6,2.4-.6,3.6s.2,2.5.5,3.6c.4,1.1.9,2.1,1.7,3,.7.8,1.7,1.5,2.8,2,1.1.5,2.5.7,4,.7s2.2-.1,3.2-.3c1.1-.2,2-.5,2.8-.9.2,0,.3-.3.3-.5l-.4-2.4c0-.1-.1-.3-.3-.3-.1,0-.3,0-.4,0-.7.3-1.4.5-2.2.7-.8.2-1.6.3-2.5.3s-1.8-.1-2.4-.4c-.6-.2-1.1-.6-1.5-1-.4-.4-.7-.9-.9-1.5-.2-.5-.3-1-.3-1.6h10.4c.2,0,.4-.2.5-.4.2-1,.4-2,.4-3s-.1-2-.4-2.9c-.3-.9-.8-1.7-1.4-2.4s-1.4-1.2-2.3-1.6c-.9-.4-1.9-.6-3.1-.6ZM62.8,44.4c1,0,1.9.2,2.7.5.8.3,1.4.8,1.9,1.3.5.6.9,1.2,1.2,2,.3.8.4,1.6.4,2.6s0,1.6-.3,2.4h-10.5c-.1,0-.3,0-.4.2,0,0-.1.2-.1.4,0,.9.2,1.7.4,2.4.2.7.6,1.4,1.1,1.9.5.5,1.1,1,1.9,1.2.8.3,1.7.4,2.7.4s1.9,0,2.8-.3c.6-.1,1.2-.3,1.8-.5l.3,1.4c-.7.3-1.4.5-2.2.6-1,.2-2,.3-3.1.3s-2.6-.2-3.6-.7c-1-.4-1.8-1-2.5-1.8-.6-.7-1.1-1.6-1.5-2.6-.3-1-.5-2.1-.5-3.3s.2-2.3.5-3.3c.3-1,.8-1.9,1.5-2.7.6-.8,1.4-1.4,2.3-1.8.9-.4,2-.6,3.1-.6ZM62.8,45.8c-.7,0-1.5.1-2.1.4-.6.3-1.1.7-1.5,1.2-.4.5-.8,1.1-1,1.7-.2.6-.4,1.3-.4,2,0,.1,0,.3.1.4s.2.2.4.2h8.1c.3,0,.5-.2.5-.4,0-.7,0-1.4,0-2-.1-.7-.3-1.3-.6-1.8-.3-.5-.8-.9-1.4-1.2-.6-.3-1.3-.4-2-.4ZM62.8,46.8c.6,0,1.2.1,1.6.3.4.2.8.5,1,.9.2.4.4.9.5,1.4,0,.4,0,.9,0,1.3h-7.1c0-.4.2-.8.3-1.2.2-.5.5-1,.8-1.4.3-.4.7-.7,1.2-.9.5-.2,1.1-.3,1.6-.3Z"/>
</svg>