<svg xmlns="http://www.w3.org/2000/svg"  viewBox="0 0 100 100" width="100px" height="100px"><path d="M 55.136719 11.650391 C 53.975867 11.641881 52.805249 11.689027 51.630859 11.792969 C 42.235743 12.624506 32.546768 17.03917 24.792969 24.792969 C 11.694002 37.891936 8.1131262 56.460336 15.257812 69.898438 C 17.710501 74.511363 24.009994 75.404068 27.699219 71.714844 L 34.835938 64.578125 A 1.0001 1.0001 0 0 0 34.90625 64.5 C 35.790286 63.408288 37.164667 62.779778 38.75 63.070312 A 1.0001 1.0001 0 0 0 38.751953 63.070312 C 40.325699 63.358241 41.640044 64.67356 41.929688 66.248047 C 42.220942 67.833125 41.592751 69.208718 40.5 70.09375 A 1.0001 1.0001 0 0 0 40.421875 70.164062 C 37.475522 73.110416 37.248339 77.180357 38.839844 80.261719 C 40.431349 83.343081 43.880299 85.529017 47.994141 84.878906 A 1.0001 1.0001 0 0 0 47.996094 84.878906 C 53.572024 83.997118 59.150597 81.809054 64.326172 78.484375 L 64.5 84.5 C 64.5 86.697334 66.302666 88.5 68.5 88.5 C 70.697334 88.5 72.5 86.697334 72.5 84.5 L 72.873047 71.464844 C 87.736152 55.967067 89.66424 33.250177 76.707031 20.292969 C 70.949578 14.535514 63.262682 11.709957 55.136719 11.650391 z M 55.042969 13.648438 C 62.714567 13.694231 69.935297 16.349361 75.292969 21.707031 C 87.158911 33.572974 85.751287 54.562398 72.125 69.382812 L 73 49.521484 A 0.50005 0.50005 0 0 0 73 49.5 L 73 49.472656 L 73 45.613281 L 76.703125 37.712891 A 0.50005 0.50005 0 0 0 76.746094 37.441406 C 76.872593 37.147398 77 36.847558 77 36.5 C 77 35.125771 75.875287 34 74.5 34 L 62.5 34 C 61.124713 34 60 35.125771 60 36.5 C 60 36.848231 60.126968 37.148914 60.253906 37.443359 A 0.50005 0.50005 0 0 0 60.296875 37.712891 L 64 45.613281 L 64 49.5 A 0.50005 0.50005 0 0 0 64 49.507812 A 0.50005 0.50005 0 0 0 64 49.521484 A 0.50005 0.50005 0 0 0 64.001953 49.550781 L 65.164062 75.726562 A 1.0001 1.0001 0 0 0 64.703125 75.900391 C 59.359761 79.637029 53.489689 81.984157 47.683594 82.902344 C 44.406435 83.420233 41.855682 81.741638 40.617188 79.34375 C 39.378692 76.945862 39.49129 73.922772 41.835938 71.578125 C 43.397969 70.267464 44.315965 68.158628 43.898438 65.886719 C 43.454079 63.471206 41.527583 61.543635 39.111328 61.101562 C 36.83967 60.685247 34.731558 61.602952 33.421875 63.164062 L 26.285156 70.300781 C 23.506388 73.079564 18.86475 72.422058 17.023438 68.958984 C 10.370124 56.445085 13.647998 38.766064 26.207031 26.207031 C 33.641232 18.77283 42.850289 14.586275 51.732422 13.789062 C 52.842689 13.689411 53.947026 13.641896 55.042969 13.648438 z M 54.888672 16 A 0.50005 0.50005 0 1 0 54.888672 17 C 61.984291 17 68.38324 19.516052 72.933594 24.066406 C 77.747848 28.88066 80.054412 35.460747 79.962891 42.494141 A 0.50005 0.50005 0 1 0 80.962891 42.505859 C 81.057369 35.245251 78.664371 28.383121 73.640625 23.359375 C 68.888979 18.607729 62.221053 16 54.888672 16 z M 49.5 21 C 45.916069 21 43 23.916072 43 27.5 C 43 31.083928 45.916069 34 49.5 34 C 53.083931 34 56 31.083928 56 27.5 C 56 23.916072 53.083931 21 49.5 21 z M 49.5 22 C 52.543491 22 55 24.456511 55 27.5 C 55 30.543489 52.543491 33 49.5 33 C 46.456509 33 44 30.543489 44 27.5 C 44 24.456511 46.456509 22 49.5 22 z M 32.5 29 C 28.916069 29 26 31.916072 26 35.5 C 26 39.083928 28.916069 42 32.5 42 C 36.083931 42 39 39.083928 39 35.5 C 39 31.916072 36.083931 29 32.5 29 z M 32.5 30 C 35.543491 30 38 32.456511 38 35.5 C 38 38.543489 35.543491 41 32.5 41 C 29.456509 41 27 38.543489 27 35.5 C 27 32.456511 29.456509 30 32.5 30 z M 62.5 35 L 74.5 35 C 75.334713 35 76 35.666229 76 36.5 C 76 36.761431 75.92762 37.004797 75.800781 37.230469 A 0.50005 0.50005 0 0 0 75.794922 37.708984 L 75.685547 37.525391 L 72.181641 45 L 64.818359 45 L 61.314453 37.525391 L 61.195312 37.728516 A 0.50005 0.50005 0 0 0 61.199219 37.230469 C 61.072383 37.004797 61 36.761431 61 36.5 C 61 35.666229 61.665287 35 62.5 35 z M 80.277344 44.992188 A 0.50005 0.50005 0 0 0 79.785156 45.447266 C 79.489668 48.22978 78.827958 51.051214 77.810547 53.828125 A 0.50018397 0.50018397 0 1 0 78.75 54.171875 C 79.794589 51.320786 80.474785 48.42022 80.779297 45.552734 A 0.50005 0.50005 0 0 0 80.277344 44.992188 z M 24.5 45 C 20.916069 45 18 47.916072 18 51.5 C 18 55.083928 20.916069 58 24.5 58 C 28.083931 58 31 55.083928 31 51.5 C 31 47.916072 28.083931 45 24.5 45 z M 24.5 46 C 27.543491 46 30 48.456511 30 51.5 C 30 54.543489 27.543491 57 24.5 57 C 21.456509 57 19 54.543489 19 51.5 C 19 48.456511 21.456509 46 24.5 46 z M 65 46 L 72 46 L 72 49 L 65 49 L 65 46 z M 51 48 C 47.698375 48 45 50.698375 45 54 C 45 57.301625 47.698375 60 51 60 C 54.301625 60 57 57.301625 57 54 C 57 50.698375 54.301625 48 51 48 z M 51 50 C 53.220375 50 55 51.779625 55 54 C 55 56.220375 53.220375 58 51 58 C 48.779625 58 47 56.220375 47 54 C 47 51.779625 48.779625 50 51 50 z M 65.023438 50 L 71.976562 50 L 71.072266 70.517578 A 1.0001 1.0001 0 0 0 70.882812 71.072266 L 70.580078 81.654297 L 70.5 83.478516 A 0.50005 0.50005 0 0 0 70.521484 83.644531 C 70.522533 83.648028 70.522399 83.650806 70.523438 83.654297 L 70.5 84.470703 A 1.0001 1.0001 0 0 0 70.5 84.5 C 70.5 85.616666 69.616666 86.5 68.5 86.5 C 67.383334 86.5 66.5 85.616666 66.5 84.5 A 1.0001 1.0001 0 0 0 66.5 84.470703 L 66.472656 83.501953 C 66.481573 83.448919 66.479432 83.401669 66.490234 83.347656 A 0.50005 0.50005 0 0 0 66.5 83.228516 L 66.400391 80.980469 L 66.277344 76.691406 A 1.0001 1.0001 0 0 0 66.193359 76.318359 L 65.023438 50 z M 77.269531 55.994141 A 0.50005 0.50005 0 0 0 76.808594 56.294922 C 76.210408 57.630474 75.526166 58.952299 74.759766 60.246094 A 0.50005 0.50005 0 1 0 75.621094 60.753906 C 76.406693 59.427701 77.106888 58.075526 77.720703 56.705078 A 0.50005 0.50005 0 0 0 77.269531 55.994141 z"/></svg>