<?xml version="1.0" encoding="UTF-8"?>
<svg id="Calque_1" data-name="Calque 1" xmlns="http://www.w3.org/2000/svg" viewBox="0 0 100 100">
  <defs>
    <style>
      .cls-1 {
        fill: #fff;
        stroke-width: 0px;
      }
    </style>
  </defs>
  <path class="cls-1" d="M30.5,17.5c-7.2,0-13,5.8-13,13v39c0,7.2,5.8,13,13,13h39c7.2,0,13-5.8,13-13V30.5c0-7.2-5.8-13-13-13,0,0-39,0-39,0ZM30.5,19.5h39c6.1,0,11,4.9,11,11v39c0,6.1-4.9,11-11,11H30.5c-6.1,0-11-4.9-11-11V30.5c0-6,5-11,11-11ZM33.4,22.5c-6,0-10.8,4.9-10.8,10.8v33.3c0,6,4.9,10.8,10.8,10.8h33.3c6,0,10.8-4.9,10.8-10.8v-18.6c0-.3-.2-.5-.5-.5s-.5.2-.5.5v18.7c0,5.4-4.4,9.8-9.8,9.8h-33.3c-5.4,0-9.8-4.4-9.8-9.8v-33.3c0-5.4,4.4-9.8,9.8-9.8h33.7c.3,0,.5-.2.5-.5s-.2-.5-.5-.5h-33.7ZM77,36.5c-.3,0-.5.2-.5.5v2c0,.3.2.5.5.5s.5-.2.5-.5v-2c0-.2-.2-.5-.5-.5ZM77,40.5c-.3,0-.5.2-.5.5v4c0,.3.2.5.5.5s.5-.2.5-.5v-4c0-.2-.2-.5-.5-.5Z"/>
  <path class="cls-1" d="M44,32.4c-3.4,0-6.1,2.7-6.1,6.1s1.6,4.7,3.8,5.6c-2.2.9-3.8,3.1-3.8,5.6s1.6,4.8,3.9,5.7c-2.3,1-3.9,3.2-3.9,5.8s2.8,6.3,6.3,6.3,6.3-2.8,6.3-6.3v-16.7h5.6c3.4,0,6.1-2.7,6.1-6.1s-2.7-6.1-6.1-6.1h-12.1ZM56.1,44.6c-3.1,0-5.6,2.5-5.6,5.6s2.5,5.6,5.6,5.6,5.6-2.5,5.6-5.6-2.4-5.6-5.6-5.6ZM44,33.3h5.6v10.4h-5.6c-2.9,0-5.2-2.3-5.2-5.2s2.3-5.2,5.2-5.2ZM50.5,33.3h5.6c2.9,0,5.2,2.3,5.2,5.2s-2.3,5.2-5.2,5.2h-5.6v-10.4ZM52.2,34.7c0,0-.2,0-.2.2s0,.2.2.2h2.5c0,0,.2,0,.2-.2s0-.2-.2-.2h-2.5ZM56.1,34.7c0,0-.2,0-.2.2s0,.2.2.2h0c1.9,0,3.4,1.5,3.4,3.4s0,.2.2.2.2,0,.2-.2h0c0-2.1-1.6-3.8-3.8-3.8ZM44,44.6h5.6v10.4h-5.6c-2.9,0-5.2-2.3-5.2-5.2s2.3-5.2,5.2-5.2ZM56.1,45.5c2.6,0,4.7,2.1,4.7,4.7s-2.1,4.7-4.7,4.7-4.7-2.1-4.7-4.7,2.1-4.7,4.7-4.7ZM56.1,46.9c-1,0-2,.5-2.6,1.2,0,0,0,.2,0,.3s.2,0,.3,0h0c.5-.6,1.3-1,2.2-1s.2,0,.2-.2,0-.3-.1-.3h0ZM53,50c0,0-.2,0-.2.2,0,.5,0,1,.3,1.5,0,0,.2.2.3,0,0,0,.2-.2,0-.3h0c-.2-.4-.3-.8-.3-1.3s0-.2-.2-.2h0ZM59.3,50c0,0-.2,0-.2.2,0,.3,0,.6,0,.8,0,0,0,.2.2.3,0,0,.2,0,.3-.2,0-.3,0-.6,0-1,0,0-.2,0-.3,0h0ZM58.6,52.1q0,0-.2,0c-.5.6-1.3,1-2.2,1s-.9,0-1.3-.3c0,0-.2,0-.3,0s0,.2,0,.3h0c.4.2.9.3,1.5.3,1,0,2-.5,2.6-1.2,0,0,0-.2,0-.3,0,0-.2,0-.2,0ZM44.2,55.9h5.4v5.4c0,3-2.4,5.4-5.4,5.4s-5.4-2.4-5.4-5.4c0-3,2.4-5.4,5.4-5.4ZM48,57.2c0,0-.2,0-.2.2v.9c0,0,0,.2.2.2s.2,0,.2-.2h0v-.9c0-.1-.1-.2-.2-.2h0ZM48,59.5c0,0-.2,0-.2.2v1.6c0,.2,0,.4,0,.6,0,0,0,.2.2.3,0,0,.2,0,.3-.2h0c0-.2,0-.5,0-.7v-1.6c-.1,0-.2-.2-.3-.2h0ZM40.3,61.1c0,0-.2,0-.2.2,0,2.2,1.8,4.1,4.1,4.1s1.2,0,1.7-.4c0,0,.2-.2,0-.3,0,0-.2-.2-.3,0h0c-.5.2-1,.3-1.5.3-2,0-3.6-1.6-3.6-3.6s0-.2-.3-.2h0ZM47.4,63.1q0,0-.2,0c0,.2-.3.4-.5.6,0,.1,0,.2,0,.3s.2,0,.3,0h0c.2-.2.4-.5.6-.7,0,0,0-.2,0-.3t0,0h0Z"/>
</svg>