<?xml version="1.0" encoding="UTF-8"?>
<svg id="Calque_1" data-name="Calque 1" xmlns="http://www.w3.org/2000/svg" version="1.1" viewBox="0 0 100 100">
  <defs>
    <style>
      .cls-1 {
        fill: #fff;
        stroke-width: 0px;
      }
    </style>
  </defs>
  <path class="cls-1" d="M50,14c-19.9,0-36,16.1-36,36s16.1,36,36,36,36-16.1,36-36S69.9,14,50,14ZM50,16c18.8,0,34,15.2,34,34s-15.2,34-34,34-34-15.2-34-34S31.2,16,50,16ZM50,19c-17.1,0-31,13.9-31,31s13.9,31,31,31,31-13.9,31-31-3.9-17.3-10.2-23c-.2-.2-.5-.2-.7,0-.2.2-.2.5,0,.7,0,0,0,0,0,0,6,5.5,9.8,13.4,9.8,22.2,0,16.6-13.4,30-30,30s-30-13.4-30-30,13.4-30,30-30,7.1.6,10.3,1.8c.3,0,.5,0,.6-.3s0-.5-.3-.6c-3.3-1.2-6.9-1.9-10.7-1.9ZM63.5,22.1c-.3,0-.5.2-.5.5,0,.2.1.4.3.4.7.3,1.3.7,2,1.1.2.1.5,0,.7-.2.1-.2,0-.5-.2-.7,0,0,0,0,0,0-.7-.4-1.3-.8-2-1.1,0,0-.2,0-.2,0ZM67.5,24.5s0,0,0,0c-.3,0-.5.3-.5.5,0,.2,0,.3.2.4.3.2.7.5,1,.7.2.2.5.1.7,0,.2-.2.1-.5,0-.7,0,0,0,0,0,0-.3-.3-.7-.5-1-.7,0,0-.2,0-.3,0ZM36.2,38c-1,0-2.1.3-3.1.9-4.4,2.7-7.2,8.7-6.6,13.3.2,1.5.8,3.1,1.9,4.2.8.7,2.2,1.6,3.8,1.6s3.3-.7,4.7-1.5c.9-.6,1.7-1.3,2.3-2,.5,1,1.4,1.6,2.4,1.6s1.5-.4,2-1.1c.2.7.6,1.1,1.5,1.1s1.9-.6,3.1-1.5v.6c-.2.1-.2.3-.2.4,0,.3.2.4.5.4.6,0,1.4-.6,1.6-1.4l.3-1.2c.3-1.5,2.6-3.8,3.2-3.8s.1,0,.2.2c0,.4-.7,1.7-1,3.7,0,.3,0,.7,0,1.1.1.9.7,1.5,1.6,1.5s2.7-.7,4-2.2c0,.8.3,1.5.5,1.9.1.2.4.2.6.2s.7-.1,1.1-.3c1-.6,2.3-1.8,3.5-3.6.2,0,.3,0,.5,0,.5,0,1.1-.2,1.6-.5-.2.6-.3,1.3-.2,1.8.2,1.4,1.4,2.5,2.7,2.5s1.5-.4,2-1.1c.2.9.8,1.9,2.2,2.5,0,0,.2,0,.3,0,.3,0,.4-.2.4-.4,0,0,0-.2-.2-.3-.3-.3-.7-.8-.8-1.6,0-.4,0-.9.1-1.4.3-1.3.4-1.7.4-1.8,0-.3-.3-.5-.6-.5-.6,0-1.4.6-1.6,1.4-.3,1.2-1.2,2-1.8,2s-1.1-.8-1.2-1.6c-.2-2,1-4.5,2.9-4.5s1.1.2,1.2.8c.1.9-.8.7-.8,1,0,.4.7.5,1.1.5s1.6-.3,1.4-1.7c-.1-1.1-1.3-1.6-2.7-1.6s-2.9.8-3.9,1.9c-.1,0-.3.2-.4.4-.3.4-.9.7-1.6.7s-.3,0-.3,0c.5-.9.8-1.9.8-2.7,0-1.3-.8-2-1.7-2s-2.3,1-2.3,3,.5,2.2,1.3,2.7c-.9,1.5-2.2,2.8-2.4,2.8s-.1-.1-.2-.2c-.1-.5-.3-1.5-.3-2.2,0-1.1.2-2.3.6-3.5,0-.1,0-.3,0-.4,0-.3-.2-.5-.5-.5-.6,0-1.5.7-1.7,1.4-.2.7-.3,1.6-.3,2.8s0,.4,0,.6c-1.1,1.5-2.5,2-2.9,2s-.6-.4-.6-.7c.3-1.4.7-3,1.1-4.1.2-.5.3-1,.2-1.3,0-.5-.4-.7-.9-.7-1.1,0-2.9,1.2-4.1,2.7l.4-1.7c0-.2,0-.3,0-.4,0-.3-.2-.5-.5-.5-1.3,0-1.6.7-1.7,1.4,0,.2-.4,2.2-.7,3.8-1,.9-2.1,1.5-2.4,1.5s-.5-.3-.5-.5c0-.2.3-1.4.3-1.8,0-.2,0-.3,0-.4,0-.3-.2-.4-.5-.4-.6,0-1.4.6-1.6,1.4-.3,1.2-1.2,2-1.7,2s-1.1-.8-1.2-1.5c-.2-1.7.9-4.5,2.9-4.5s1.1.2,1.2.7c.1.9-.8.7-.7,1.1,0,.4.7.5,1,.5s1.6-.3,1.4-1.7c-.1-1.1-1.3-1.7-2.7-1.7-3.2,0-5.3,3.1-5.1,5.6-.8,1-1.6,1.5-3.1,2.3-.8.4-1.8.7-2.6.7-2.6,0-3.9-2.4-4.2-4.5-.7-5.4,4.1-12.8,7.4-12.8s1.5.7,1.6,1.7c.2,1.6.2,2.8-1.5,4.2-.2.2-.2.4-.1.5.1.2.6.2,1.5-.2,1.8-.9,2.4-2.3,2.2-3.9-.2-1.8-1.8-3.3-3.9-3.3ZM63.3,47.1c.3,0,.7.4.7,1.4s-.1,1.1-.3,1.6c-.5-.5-.9-1.3-.9-2.1s.1-.9.5-.9Z"/>
</svg>