<?xml version="1.0" encoding="UTF-8"?>
<svg id="Calque_1" data-name="Calque 1" xmlns="http://www.w3.org/2000/svg" version="1.1" viewBox="0 0 100 100">
  <defs>
    <style>
      .cls-1 {
        fill: #fff;
        stroke-width: 0px;
      }
    </style>
  </defs>
  <path class="cls-1" d="M30.7,17.9c-7.2,0-13,5.8-13,13v39c0,7.2,5.8,13,13,13h39c7.2,0,13-5.8,13-13V30.9c0-7.2-5.8-13-13-13H30.7ZM30.7,19.9h39c6.1,0,11,4.9,11,11v39c0,6.1-4.9,11-11,11H30.7c-6.1,0-11-4.9-11-11V30.9c0-6.1,4.9-11,11-11ZM33.5,22.9c-6,0-10.8,4.9-10.8,10.8v33.3c0,6,4.9,10.8,10.8,10.8h33.3c6,0,10.8-4.9,10.8-10.8v-18.7c0-.3-.2-.5-.5-.5s-.5.2-.5.5v18.7c0,5.4-4.4,9.8-9.8,9.8h-33.3c-5.4,0-9.8-4.4-9.8-9.8v-33.3c0-5.4,4.4-9.8,9.8-9.8h33.7c.3,0,.5-.2.5-.5s-.2-.5-.5-.5h-33.7ZM77.2,36.9c-.3,0-.5.2-.5.5v2c0,.3.2.5.5.5s.5-.2.5-.5v-2c0-.3-.2-.5-.5-.5ZM62.3,37.3c-.8,0-1.4.3-1.9.8-.5.5-.7,1.1-.7,1.8s.2,1.3.7,1.8c.5.5,1.1.8,1.9.8s1.4-.3,1.9-.8c.5-.5.7-1.1.7-1.8,0-.7-.2-1.3-.7-1.8-.5-.5-1.1-.8-1.9-.8ZM45.2,37.9c-.2,0-.4.1-.5.3l-9.6,24c0,.2,0,.3,0,.5,0,.1.2.2.4.2h3.1c.2,0,.4-.1.5-.3l2.1-5.7h10.9l2.2,5.7c0,.2.3.3.5.3h3.1c.2,0,.3,0,.4-.2,0-.1.1-.3,0-.5l-9.6-24c0-.2-.3-.3-.5-.3h-3.2ZM62.3,38.3c.5,0,.8.1,1.1.4.3.3.4.7.4,1.1s-.1.8-.4,1.1c-.3.3-.6.4-1.1.4s-.8-.1-1.1-.5c-.3-.3-.4-.7-.4-1.1s.1-.8.4-1.1c.3-.3.6-.4,1.1-.4ZM45.5,38.9h2.6l9.2,23h-2l-2.2-5.7c0-.2-.3-.3-.5-.3h-11.6c-.2,0-.4.1-.5.3l-2.1,5.7h-2l9.2-23ZM46.8,40.5c-.2,0-.4,0-.5.3l-4.6,12.5c0,.2,0,.3,0,.5,0,.1.2.2.4.2h9.2c.2,0,.3,0,.4-.2,0-.1.1-.3,0-.5l-4.6-12.5c0-.2-.3-.3-.5-.3h0ZM77.2,40.9c-.3,0-.5.2-.5.5v4c0,.3.2.5.5.5s.5-.2.5-.5v-4c0-.3-.2-.5-.5-.5ZM46.8,42.4l3.9,10.5h-7.8l3.9-10.5ZM61.2,44.9c-.3,0-.5.2-.5.5v17c0,.3.2.5.5.5h3c.3,0,.5-.2.5-.5v-17c0-.3-.2-.5-.5-.5h-3ZM61.7,45.9h2v16h-2v-16Z"/>
</svg>