<?xml version="1.0" encoding="UTF-8"?>
<svg id="Calque_1" data-name="Calque 1" xmlns="http://www.w3.org/2000/svg" version="1.1" viewBox="0 0 100 100">
  <defs>
    <style>
      .cls-1 {
        fill: #fff;
        stroke-width: 0px;
      }
    </style>
  </defs>
  <path class="cls-1" d="M30.5,17.5c-7.2,0-13,5.8-13,13v39c0,7.2,5.8,13,13,13h39c7.2,0,13-5.8,13-13V30.5c0-7.2-5.8-13-13-13H30.5ZM30.5,19.5h39c6.1,0,11,4.9,11,11v39c0,6.1-4.9,11-11,11H30.5c-6.1,0-11-4.9-11-11V30.5c0-6.1,4.9-11,11-11ZM33.3,22.5c-6,0-10.8,4.9-10.8,10.8v33.3c0,6,4.9,10.8,10.8,10.8h33.3c6,0,10.8-4.9,10.8-10.8v-18.7c0-.3-.2-.5-.5-.5s-.5.2-.5.5v18.7c0,5.4-4.4,9.8-9.8,9.8h-33.3c-5.4,0-9.8-4.4-9.8-9.8v-33.3c0-5.4,4.4-9.8,9.8-9.8h33.7c.3,0,.5-.2.5-.5s-.2-.5-.5-.5h-33.7ZM77,36.5c-.3,0-.5.2-.5.5v2c0,.3.2.5.5.5s.5-.2.5-.5v-2c0-.3-.2-.5-.5-.5ZM40.3,36.7c-.2,0-.4.1-.5.3l-9.5,23.6v.5c0,0,.2.2.4.2h3.4c.2,0,.4,0,.5-.3l2-5.4h10.5l2.1,5.4c0,.2.3.3.5.3h3.4c.2,0,.3,0,.4-.2,0,0,0-.3,0-.5l-9.5-23.6c0-.2-.3-.3-.5-.3,0,0-3.2,0-3.2,0ZM40.6,37.7h2.6l9.1,22.6h-2.3l-2.1-5.4c0-.2-.3-.3-.5-.3h-11.2c-.2,0-.4,0-.5.3l-2,5.4h-2.3l9.1-22.6h0ZM41.9,39.7c-.2,0-.4,0-.5.3l-4.6,12.3v.5c0,0,.2.2.4.2h9.2c.2,0,.3,0,.4-.2,0,0,.1-.3,0-.5l-4.6-12.3c0-.2-.3-.3-.5-.3h.2ZM77,40.5c-.3,0-.5.2-.5.5v4c0,.3.2.5.5.5s.5-.2.5-.5v-4c0-.3-.2-.5-.5-.5ZM41.9,41.6l3.9,10.4h-7.8l3.9-10.4ZM63.1,43c-1.3,0-2.5.2-3.5.7s-1.9,1.2-2.7,2c-.7.9-1.3,1.9-1.7,3-.4,1.1-.6,2.4-.6,3.6s.2,2.5.5,3.6c.4,1.1.9,2.1,1.7,3,.7.8,1.7,1.5,2.8,2s2.5.7,4,.7,2.2,0,3.2-.3c1.1-.2,2-.5,2.8-.9.2,0,.3-.3.3-.5l-.4-2.4c0,0,0-.3-.3-.3h-.4c-.7.3-1.4.5-2.2.7s-1.6.3-2.5.3-1.8,0-2.4-.4c-.6-.2-1.1-.6-1.5-1s-.7-.9-.9-1.5c-.2-.5-.3-1-.3-1.6h10.4c.2,0,.4-.2.5-.4.2-1,.4-2,.4-3s0-2-.4-2.9c-.3-.9-.8-1.7-1.4-2.4s-1.4-1.2-2.3-1.6c-.9-.4-1.9-.6-3.1-.6v.2ZM63.1,44c1,0,1.9.2,2.7.5s1.4.8,1.9,1.3c.5.6.9,1.2,1.2,2s.4,1.6.4,2.6,0,1.6-.3,2.4h-10.5c0,0-.3,0-.4.2,0,0,0,.2,0,.4,0,.9.2,1.7.4,2.4s.6,1.4,1.1,1.9,1.1,1,1.9,1.2c.8.3,1.7.4,2.7.4s1.9,0,2.8-.3c.6,0,1.2-.3,1.8-.5l.3,1.4c-.7.3-1.4.5-2.2.6-1,.2-2,.3-3.1.3s-2.6-.2-3.6-.7c-1-.4-1.8-1-2.5-1.8-.6-.7-1.1-1.6-1.5-2.6-.3-1-.5-2.1-.5-3.3s.2-2.3.5-3.3.8-1.9,1.5-2.7c.6-.8,1.4-1.4,2.3-1.8.9-.4,2-.6,3.1-.6h0ZM63,45.3c-.7,0-1.5.1-2.1.4s-1.1.7-1.5,1.2-.8,1.1-1,1.7-.4,1.3-.4,2,0,.3,0,.4.2.2.4.2h8.1c.3,0,.5-.2.5-.4v-2c0-.7-.3-1.3-.6-1.8s-.8-.9-1.4-1.2-1.3-.4-2-.4h0ZM63,46.4c.6,0,1.2.1,1.6.3s.8.5,1,.9.4.9.5,1.4v1.3h-7.1c0-.4.2-.8.3-1.2.2-.5.5-1,.8-1.4s.7-.7,1.2-.9c.5-.2,1.1-.3,1.6-.3h.1Z"/>
</svg>