<?xml version="1.0" encoding="UTF-8"?>
<svg id="Calque_1" data-name="Calque 1" xmlns="http://www.w3.org/2000/svg" version="1.1" viewBox="0 0 100 100">
  <defs>
    <style>
      .cls-1 {
        fill: #fff;
        stroke-width: 0px;
      }
    </style>
  </defs>
  <path class="cls-1" d="M31,17.9c-7.2,0-13,5.8-13,13v39c0,7.2,5.8,13,13,13h39c7.2,0,13-5.8,13-13V30.9c0-7.2-5.8-13-13-13H31ZM31,19.9h39c6.1,0,11,4.9,11,11v39c0,6.1-4.9,11-11,11H31c-6.1,0-11-4.9-11-11V30.9c0-6.1,4.9-11,11-11ZM33.8,22.9c-6,0-10.8,4.9-10.8,10.8v33.3c0,6,4.9,10.8,10.8,10.8h33.3c6,0,10.8-4.9,10.8-10.8v-18.7c0-.3-.2-.5-.5-.5s-.5.2-.5.5v18.7c0,5.4-4.4,9.8-9.8,9.8h-33.3c-5.4,0-9.8-4.4-9.8-9.8v-33.3c0-5.4,4.4-9.8,9.8-9.8h33.7c.3,0,.5-.2.5-.5s-.2-.5-.5-.5h-33.7ZM58.2,36.9c-.3,0-.5.2-.5.5v7.5c-.3,0-.7-.1-1-.2-.6,0-1.2-.1-1.9-.1-1.3,0-2.5.2-3.7.6-1.1.4-2.1,1.1-3,1.9-.8.8-1.5,1.8-2,3-.5,1.2-.7,2.5-.7,4s.2,2.6.5,3.7c.3,1.1.8,2.1,1.5,2.9.6.8,1.4,1.5,2.3,2,.9.5,1.9.7,3,.7s2.6-.3,3.6-.8c.6-.3,1.1-.7,1.6-1.1v1.1c0,.3.2.5.5.5h3.1c.3,0,.5-.2.5-.5v-25.1c0-.3-.2-.5-.5-.5h-3.2ZM77.5,36.9c-.3,0-.5.2-.5.5v2c0,.3.2.5.5.5s.5-.2.5-.5v-2c0-.3-.2-.5-.5-.5ZM58.7,37.9h2.2v24.1h-2.1v-1.8c0-.2-.1-.4-.3-.5-.2,0-.4,0-.6.1-.6.7-1.3,1.3-2.2,1.8-.8.5-1.9.7-3.1.7s-1.8-.2-2.5-.6c-.8-.4-1.4-1-2-1.7-.6-.7-1-1.6-1.3-2.6-.3-1-.5-2.2-.5-3.4s.2-2.6.6-3.6c.4-1.1,1-2,1.7-2.7.7-.7,1.6-1.3,2.6-1.7,1-.4,2.1-.6,3.3-.6s1.3,0,1.8.1c.5,0,1,.2,1.5.3.2,0,.3,0,.4,0s.2-.2.2-.4v-7.6ZM38.4,38.1c-.3,0-.5.2-.5.5v24c0,.3.2.5.5.5h3.1c.3,0,.5-.2.5-.5v-24c0-.3-.2-.5-.5-.5h-3.1ZM38.9,39.1h2.1v23h-2.1v-23ZM77.5,40.9c-.3,0-.5.2-.5.5v4c0,.3.2.5.5.5s.5-.2.5-.5v-4c0-.3-.2-.5-.5-.5ZM55.1,47.2c-1.9,0-3.5.6-4.7,1.8-1.2,1.2-1.7,2.9-1.7,5.1s.4,3.6,1.1,4.8c.8,1.3,2.1,1.9,3.8,1.9s2.1-.3,3-.8c.8-.5,1.5-1.1,2-1.7,0,0,.1-.2.1-.3v-9.8c0-.2-.1-.4-.3-.5-.4-.2-1-.3-1.5-.4-.5,0-1.1-.1-1.7-.1ZM55.1,48.2c.6,0,1.1,0,1.6.1.4,0,.7.1,1,.2v9.3c-.4.5-1,.9-1.6,1.4-.7.4-1.5.7-2.4.7-1.3,0-2.3-.5-2.9-1.5-.7-1-1-2.5-1-4.2s.5-3.4,1.5-4.4c1-1,2.3-1.5,3.9-1.5Z"/>
</svg>