<?xml version="1.0" encoding="UTF-8"?>
<svg id="Calque_1" data-name="Calque 1" xmlns="http://www.w3.org/2000/svg" version="1.1" viewBox="0 0 100 100">
  <defs>
    <style>
      .cls-1 {
        fill: #fff;
        stroke-width: 0px;
      }
    </style>
  </defs>
  <path class="cls-1" d="M31,17.9c-7.2,0-13,5.8-13,13v39c0,7.2,5.8,13,13,13h39c7.2,0,13-5.8,13-13V30.9c0-7.2-5.8-13-13-13H31ZM31,19.9h39c6.1,0,11,4.9,11,11v39c0,6.1-4.9,11-11,11H31c-6.1,0-11-4.9-11-11V30.9c0-6.1,4.9-11,11-11ZM33.8,22.9c-6,0-10.8,4.9-10.8,10.8v33.3c0,6,4.9,10.8,10.8,10.8h33.3c6,0,10.8-4.9,10.8-10.8v-18.7c0-.3-.2-.5-.5-.5s-.5.2-.5.5v18.7c0,5.4-4.4,9.8-9.8,9.8h-33.3c-5.4,0-9.8-4.4-9.8-9.8v-33.3c0-5.4,4.4-9.8,9.8-9.8h33.7c.3,0,.5-.2.5-.5s-.2-.5-.5-.5h-33.7ZM36.5,36.9c-.3,0-.5.2-.5.5v24c0,.3.2.5.5.5h3c.3,0,.5-.2.5-.5v-8.5h1.6c1.5,0,2.9-.2,4.2-.6,1.3-.4,2.5-.9,3.5-1.6,1-.7,1.8-1.6,2.3-2.6.6-1,.8-2.2.8-3.5,0-1.3-.3-2.4-.8-3.4-.5-1-1.2-1.8-2.2-2.4-.9-.6-2-1.1-3.2-1.4-1.2-.3-2.5-.5-3.9-.5h-6ZM77.5,36.9c-.3,0-.5.2-.5.5v2c0,.3.2.5.5.5s.5-.2.5-.5v-2c0-.3-.2-.5-.5-.5ZM37,37.9h5.5c1.3,0,2.5.1,3.6.4,1.1.3,2,.7,2.9,1.3.8.6,1.4,1.3,1.9,2.1.4.8.7,1.8.7,2.9,0,1.1-.2,2.1-.7,3-.5.9-1.2,1.6-2,2.3-.9.6-1.9,1.1-3.1,1.5-1.2.3-2.5.5-4,.5h-2.1c-.3,0-.5.2-.5.5v8.5h-2v-23ZM39.5,39.9c-.3,0-.5.2-.5.5v9c0,.3.2.5.5.5h1.9c1.1,0,2-.1,2.9-.3.9-.2,1.7-.6,2.4-1,.7-.5,1.2-1,1.6-1.7.4-.7.6-1.4.6-2.3s-.2-1.6-.6-2.2c-.4-.6-.9-1.1-1.5-1.5-.6-.4-1.4-.6-2.2-.8-.8-.2-1.7-.2-2.6-.2h-2.5ZM40,40.9h2c.8,0,1.6,0,2.4.2.7.1,1.3.4,1.9.7.5.3.9.7,1.2,1.1.3.4.4,1,.4,1.7s-.1,1.2-.4,1.8c-.3.5-.7,1-1.3,1.3-.6.4-1.3.7-2.1.9-.8.2-1.7.3-2.7.3h-1.4v-8ZM77.5,40.9c-.3,0-.5.2-.5.5v4c0,.3.2.5.5.5s.5-.2.5-.5v-4c0-.3-.2-.5-.5-.5ZM59.5,43.7c-.9,0-1.8,0-2.6.3-.8.2-1.5.5-2.1.9-.6.4-1.1,1-1.5,1.6-.4.7-.6,1.5-.6,2.4s.2,1.6.6,2.2c.4.6.8,1.1,1.4,1.6.5.4,1.2.8,1.8,1.1.6.3,1.3.6,1.9.8.5.2.9.4,1.3.6.4.2.7.4,1,.6.3.2.5.4.6.7.1.2.2.5.2.8,0,.6-.3,1.1-.8,1.3-.6.3-1.4.5-2.4.5s-1.8-.1-2.6-.3c-.8-.2-1.5-.4-2.1-.7-.1,0-.3,0-.4,0-.1,0-.2.2-.3.3l-.5,2.6c0,.2,0,.5.3.6.3.2.7.3,1.2.4.5.1.9.3,1.4.4.5,0,1,.2,1.5.2.5,0,1,0,1.4,0,1,0,2-.1,2.9-.4.9-.3,1.7-.7,2.3-1.1.7-.5,1.2-1.1,1.6-1.8.4-.7.6-1.5.6-2.4s-.3-1.9-.8-2.6c-.5-.7-1.1-1.2-1.7-1.7-.6-.4-1.3-.8-1.9-1.1-.6-.3-1.1-.5-1.4-.6-.3-.2-.7-.3-1.1-.5-.4-.2-.7-.3-1-.5-.3-.2-.5-.4-.7-.6-.1-.2-.2-.4-.2-.6,0-.8.3-1,.6-1.1,1-.5,2.6-.5,4.1-.1.7.2,1.4.4,2.1.7.1,0,.3,0,.4,0,.1,0,.2-.2.3-.3l.5-2.4c0-.2,0-.4-.3-.6-.7-.4-1.6-.7-2.5-.9-.8-.2-1.7-.3-2.6-.3ZM59.5,44.7c.8,0,1.6.1,2.4.3.7.2,1.3.4,1.9.6l-.3,1.5c-.6-.2-1.1-.4-1.7-.6-1.7-.4-3.5-.4-4.8.2-.5.3-1.1.8-1.1,2s.1.9.4,1.2c.2.3.5.6.9.8.3.2.7.4,1.1.6.4.2.7.3,1.1.5.3.1.8.4,1.4.6.6.3,1.2.6,1.8,1,.6.4,1.1.9,1.5,1.4.4.5.6,1.2.6,2s-.2,1.4-.5,2c-.3.6-.7,1.1-1.3,1.5-.6.4-1.2.8-2,1-1.1.3-2.4.4-3.9.3-.5,0-.9-.1-1.4-.2-.5,0-.9-.2-1.3-.3-.3,0-.5-.2-.7-.2l.3-1.6c.5.2,1.1.4,1.6.5.8.2,1.8.3,2.8.3s2.1-.2,2.8-.6c.9-.5,1.3-1.2,1.3-2.2s-.1-.9-.4-1.3c-.2-.4-.5-.7-.9-.9-.3-.2-.7-.5-1.2-.7-.4-.2-.9-.4-1.3-.6-.6-.2-1.2-.5-1.8-.8-.6-.3-1.1-.6-1.6-1-.5-.4-.9-.8-1.1-1.3-.3-.5-.4-1.1-.4-1.7s.2-1.4.5-1.9c.3-.5.7-1,1.2-1.3.5-.3,1.1-.6,1.8-.8.8-.2,1.6-.3,2.4-.3Z"/>
</svg>