<?xml version="1.0" encoding="UTF-8"?>
<svg id="Calque_1" data-name="Calque 1" xmlns="http://www.w3.org/2000/svg" version="1.1" viewBox="0 0 100 100">
  <defs>
    <style>
      .cls-1 {
        fill: none;
        stroke: #fff;
        stroke-linecap: round;
        stroke-linejoin: round;
      }

      .cls-2 {
        fill: #fff;
        stroke-width: 0px;
      }
    </style>
  </defs>
  <path class="cls-2" d="M30.5,17.5c-7.2,0-13,5.8-13,13v39c0,7.2,5.8,13,13,13h39c7.2,0,13-5.8,13-13V30.5c0-7.2-5.8-13-13-13,0,0-39,0-39,0ZM30.5,19.5h39c6.1,0,11,4.9,11,11v39c0,6.1-4.9,11-11,11H30.5c-6.1,0-11-4.9-11-11V30.5c0-6.1,4.9-11,11-11ZM33.3,22.5c-6,0-10.8,4.9-10.8,10.8v33.3c0,6,4.9,10.8,10.8,10.8h33.3c6,0,10.8-4.9,10.8-10.8v-18.6c0-.3-.2-.5-.5-.5s-.5.2-.5.5v18.6c0,5.4-4.4,9.8-9.8,9.8h-33.3c-5.4,0-9.8-4.4-9.8-9.8v-33.3c0-5.4,4.4-9.8,9.8-9.8h33.7c.3,0,.5-.2.5-.5s-.2-.5-.5-.5c0,0-33.7,0-33.7,0ZM77,36.5c-.3,0-.5.2-.5.5v2c0,.3.2.5.5.5s.5-.2.5-.5v-2c0-.3-.2-.5-.5-.5ZM77,40.5c-.3,0-.5.2-.5.5v4c0,.3.2.5.5.5s.5-.2.5-.5v-4c0-.3-.2-.5-.5-.5Z"/>
  <path class="cls-1" d="M62.1,40.1v19.7c0,1.8-1.2,3.4-3,3.9l-7.7,2.5c1.7-1.1,2.1-2.3,2.1-3.1v-26.9c0-.6-.9-2.2-1.9-2.6l7.6,2.6c1.7.6,2.9,2.2,2.9,3.9ZM53.5,58.6v4.6c0,1.4-.8,2.7-2.1,3.1h-.9c-.7,0-1.4-.2-2.1-.5l-5.9-3.6c-.7-.5-1.1-1.3-.8-2.2.2-.8,1-1.4,1.9-1.4,0,0,9.9,0,9.9,0ZM53.5,36.2v4.1l-7.3,2.6c-.7.3-1.2.9-1.2,1.7v9.5c0,.8-.4,1.5-1.1,1.9l-2.9,1.6c-.3.2-.7.3-1,.3s-.7,0-1.1-.3c-.7-.4-1-1.1-1-1.8v-13c0-1.4.7-2.7,1.9-3.3l9.3-5.3c.8-.4,1.6-.6,2.5-.5,0,0,0,.1.2.1.8.2,1.7,1.1,1.7,2.4Z"/>
</svg>