<?xml version="1.0" encoding="UTF-8"?>
<svg id="Calque_1" data-name="Calque 1" xmlns="http://www.w3.org/2000/svg" version="1.1" viewBox="0 0 100 100">
  <defs>
    <style>
      .cls-1 {
        fill: #fff;
        stroke-width: 0px;
      }

      .cls-2 {
        fill: none;
        stroke: #fff;
        stroke-linecap: round;
        stroke-miterlimit: 10;
        stroke-width: 2px;
      }
    </style>
  </defs>
  <path class="cls-1" d="M30.5,17.5c-7.2,0-13,5.8-13,13v39c0,7.2,5.8,13,13,13h39c7.2,0,13-5.8,13-13V30.5c0-7.2-5.8-13-13-13H30.5ZM30.5,19.5h39c6.1,0,11,4.9,11,11v39c0,6.1-4.9,11-11,11H30.5c-6.1,0-11-4.9-11-11V30.5c0-6.1,4.9-11,11-11ZM33.3,22.5c-6,0-10.8,4.9-10.8,10.8v33.3c0,6,4.9,10.8,10.8,10.8h33.3c6,0,10.8-4.9,10.8-10.8v-18.7c0-.3-.2-.5-.5-.5s-.5.2-.5.5v18.7c0,5.4-4.4,9.8-9.8,9.8h-33.3c-5.4,0-9.8-4.4-9.8-9.8v-33.3c0-5.4,4.4-9.8,9.8-9.8h33.7c.3,0,.5-.2.5-.5s-.2-.5-.5-.5h-33.7ZM77,36.5c-.3,0-.5.2-.5.5v2c0,.3.2.5.5.5s.5-.2.5-.5v-2c0-.3-.2-.5-.5-.5ZM77,40.5c-.3,0-.5.2-.5.5v4c0,.3.2.5.5.5s.5-.2.5-.5v-4c0-.3-.2-.5-.5-.5Z"/>
  <line class="cls-2" x1="54.8" y1="38" x2="45.2" y2="65.4"/>
  <g>
    <line class="cls-2" x1="41.5" y1="45" x2="31.9" y2="51.8"/>
    <line class="cls-2" x1="31.9" y1="51.8" x2="41.5" y2="58.6"/>
  </g>
  <g>
    <line class="cls-2" x1="58.5" y1="45" x2="68.1" y2="51.8"/>
    <line class="cls-2" x1="68.1" y1="51.8" x2="58.5" y2="58.6"/>
  </g>
</svg>